<svg width="31" height="32" viewBox="0 0 31 32" fill="none" xmlns="http://www.w3.org/2000/svg">
<path d="M2.31543 11.7585C3.52099 7.65507 5.37304 4.20237 9.63703 2.27999C12.9377 0.791917 17.9986 1.62394 18.8961 1.80727C19.4685 1.91263 19.9951 2.05487 20.5126 2.27999C21.1078 2.55569 21.932 3.02455 21.932 3.02455C21.932 3.02455 26.7456 5.8742 28.2501 8.8844C28.6989 9.78231 28.9962 10.4353 29.1516 11.2916C29.2065 11.5493 29.4384 16.8413 28.2608 20.0864C27.8967 21.0895 27.137 22.5771 27.137 22.5771C27.137 22.5771 25.5649 25.0302 24.2336 26.3104C22.6816 27.8027 19.6761 29.4132 19.6761 29.4132C19.6761 29.4132 17.4295 30.0771 14.637 30.0771C11.5882 30.0771 9.322 28.7276 6.4375 26.5203C3.55301 24.313 1.18636 20.8206 1.21015 17.593C1.30657 16.7228 1.78851 12.7489 2.31543 11.7585Z" fill="#113BA4"/>
<path d="M20.4562 16.3122C20.24 19.7701 18.2841 21.2315 15.669 21.8647C12.9669 22.5302 9.82124 20.7974 8.75029 18.4134C8.6496 18.1925 8.54892 17.9716 8.53525 17.7184C8.26574 15.2554 9.77805 11.3957 12.6269 10.1591C17.3535 8.16571 20.8373 12.495 20.5479 15.8609C20.4791 16.105 20.4516 16.3537 20.4562 16.3122Z" fill="#040514"/>
</svg>
