<svg width="32" height="33" viewBox="0 0 32 33" fill="none" xmlns="http://www.w3.org/2000/svg">
<path d="M2.67841 12.1814C3.88396 8.07796 15.8151 2.81349 16.6121 2.39837C17.5418 1.91407 18.3615 2.04682 19.2591 2.23015C19.8315 2.33552 20.3581 2.47776 20.8755 2.70288C21.4708 2.97858 21.6905 3.25463 22.295 3.44744C24.1037 4.06732 28.2973 8.76889 28.6131 9.30729C29.0342 10.0251 29.3591 10.8582 29.5146 11.7144C29.5695 11.9722 29.9156 19.0163 28.6237 20.5092C28.4313 20.7396 27.6251 21.6152 27.4235 21.9285C26.4522 23.5408 25.7602 25.268 24.5966 26.7332C24.3492 27.0834 21.1887 29.2503 20.0391 29.8361C18.8895 30.4219 17.749 30.9248 16.4667 31.2023C12.5786 31.2749 9.68497 29.1505 6.80047 26.9432C6.63583 26.1698 1.54933 21.2435 1.57312 18.0159C1.66954 17.1456 2.15149 13.1718 2.67841 12.1814Z" fill="#113BA4"/>
<path d="M21.5858 16.6253C21.3696 20.0832 19.4137 21.5446 16.7986 22.1778C14.0965 22.8433 10.9509 21.1104 9.87993 18.7265C9.77924 18.5056 9.67855 18.2846 9.66489 18.0314C9.39538 15.5684 10.9077 11.7087 13.7565 10.4722C18.4831 8.47878 21.967 12.8081 21.6775 16.174C21.6088 16.4181 21.5812 16.6667 21.5858 16.6253Z" fill="#040514"/>
</svg>
