<?xml version="1.0" encoding="utf-8"?>
<!-- Generator: Adobe Illustrator 21.0.2, SVG Export Plug-In . SVG Version: 6.00 Build 0)  -->
<svg version="1.1" id="Ebene_1" xmlns="http://www.w3.org/2000/svg" xmlns:xlink="http://www.w3.org/1999/xlink" x="0px" y="0px"
	 viewBox="0 0 31 32" style="enable-background:new 0 0 31 32;" xml:space="preserve">
<style type="text/css">
	.st0{fill:#795D43;}
	.st1{fill:#040514;}
</style>
<path class="st0" d="M10.1,28.5c-6.1-3.3-8-5.6-9.1-11.4c-0.6-3,0.6-5.4,2.4-8.6c1.8-3.2,4.9-6,8.1-6.4c0.9,0,4.9-0.1,5.9,0.3
	c4.2,0.6,7.9,2,10.4,6c1.9,3.1,1.8,8.1,1.5,10.8c-0.7,3-2,7.1-5.5,8.6C20.6,29.1,14.4,30.8,10.1,28.5z"/>
<path class="st1" d="M20.5,16.3c-0.2,3.5-2.2,4.9-4.8,5.6c-2.7,0.7-5.8-1.1-6.9-3.5c-0.1-0.2-0.2-0.4-0.2-0.7
	c-0.3-2.5,1.2-6.3,4.1-7.6c4.7-2,8.2,2.3,7.9,5.7C20.5,16.1,20.5,16.4,20.5,16.3z"/>
</svg>
