<svg width="61" height="60" viewBox="0 0 61 60" fill="none" xmlns="http://www.w3.org/2000/svg">
<g filter="url(#filter0_i)">
<path d="M4.00861 25.5799C5.03511 23.0927 6.10284 20.6101 7.12475 18.1643C8.71448 15.8653 10.4141 13.7044 12.4663 11.7503C15.0315 9.30772 18.059 7.58755 21.1873 6.08828C25.0161 4.66663 29.06 4.31755 33.0215 3.5818C34.4275 3.31806 35.8105 3.26153 37.2209 3.71142C39.3547 4.40927 41.4932 5.06568 43.6225 5.80497C45.0283 6.29631 46.2737 7.10549 47.3725 8.10817C48.4347 9.06486 49.7809 9.7174 50.8385 10.7155C55.2703 14.7723 57.7786 19.6227 58.3539 25.7273C58.7786 30.1792 57.3807 34.1355 56.1797 38.1975C55.7764 39.5791 55.2905 40.9516 54.7635 42.3195C53.9432 44.452 52.6146 46.2765 50.9839 47.8158C48.9775 49.733 46.9345 51.6042 44.8595 53.388C43.2471 54.7615 41.2548 55.4218 39.3358 56.174C35.7588 57.5816 32.1272 57.5988 28.4088 56.8932C27.9189 56.797 27.4747 56.6639 26.9755 56.6506C21.2694 56.5638 16.4021 54.1787 12.3594 50.3748C8.84781 47.0493 6.33935 42.9539 4.33017 38.4943C2.92513 35.3602 2.94433 32.1741 2.97272 28.9051C2.97762 27.731 3.66481 26.8003 3.94903 25.7411C3.99484 25.7042 3.99943 25.6628 4.00861 25.5799Z" fill="#FAFAFA"/>
</g>
<defs>
<filter id="filter0_i" x="0.191406" y="-3.86836" width="60.7017" height="63.7865" filterUnits="userSpaceOnUse" color-interpolation-filters="sRGB">
<feFlood flood-opacity="0" result="BackgroundImageFix"/>
<feBlend mode="normal" in="SourceGraphic" in2="BackgroundImageFix" result="shape"/>
<feColorMatrix in="SourceAlpha" type="matrix" values="0 0 0 0 0 0 0 0 0 0 0 0 0 0 0 0 0 0 127 0" result="hardAlpha"/>
<feOffset dy="-4"/>
<feGaussianBlur stdDeviation="2"/>
<feComposite in2="hardAlpha" operator="arithmetic" k2="-1" k3="1"/>
<feColorMatrix type="matrix" values="0 0 0 0 0 0 0 0 0 0 0 0 0 0 0 0 0 0 0.25 0"/>
<feBlend mode="normal" in2="shape" result="effect1_innerShadow"/>
</filter>
</defs>
</svg>
