<svg width="56" height="55" viewBox="0 0 56 55" fill="none" xmlns="http://www.w3.org/2000/svg">
<path d="M54.4045 28.5213C53.6581 31.1064 52.8703 33.6915 52.1239 36.2349C50.7969 38.6949 49.3456 41.0299 47.5211 43.198C45.2404 45.9082 42.4207 47.9513 39.4765 49.7859C35.8275 51.6205 31.8467 52.4127 27.9903 53.5802C26.6219 53.9972 25.2535 54.2056 23.8021 53.9138C21.6044 53.4551 19.4067 53.0382 17.2089 52.5378C15.7576 52.2043 14.4307 51.5371 13.2281 50.6615C12.0671 49.8276 10.6572 49.3273 9.49612 48.4517C4.64452 44.9076 1.61746 40.3628 0.373458 34.3586C-0.538809 29.9806 0.414925 25.8945 1.16133 21.7249C1.41013 20.3073 1.74186 18.8896 2.11506 17.472C2.69559 15.2621 3.81519 13.3025 5.26653 11.5929C7.04959 9.46649 8.87412 7.38172 10.7401 5.38034C12.1915 3.83761 14.0989 2.96201 15.9235 2.00301C19.3237 0.210111 22.9313 -0.206842 26.7048 0.0850257C27.2024 0.126721 27.6585 0.210111 28.1561 0.168415C33.8371 -0.373625 38.9375 1.46097 43.3744 4.79661C47.2308 7.71528 50.1749 11.5096 52.6629 15.7208C54.4045 18.6812 54.7363 21.85 55.068 25.1023C55.1924 26.2697 54.6119 27.2704 54.446 28.3545C54.4045 28.3962 54.4045 28.4379 54.4045 28.5213Z" fill="#FAFAFA"/>
</svg>
