<?xml version="1.0" encoding="utf-8"?>
<!-- Generator: Adobe Illustrator 21.0.2, SVG Export Plug-In . SVG Version: 6.00 Build 0)  -->
<svg version="1.1" id="Ebene_1" xmlns="http://www.w3.org/2000/svg" xmlns:xlink="http://www.w3.org/1999/xlink" x="0px" y="0px"
	 viewBox="0 0 31 32" style="enable-background:new 0 0 31 32;" xml:space="preserve">
<style type="text/css">
	.st0{fill:#1C8E51;}
	.st1{fill:#040514;}
</style>
<path class="st0" d="M23.4,26.8c-6,3.5-9,3.8-14.5,1.8c-2.9-1.1-4.3-3.4-6.1-6.6c-1.8-3.2-2.5-7.3-1.2-10.3C2.1,11,4.2,7.6,5,6.9
	c2.8-3.3,5.8-5.7,10.5-5.7c3.6,0,7.9,2.7,10,4.4c2.2,2.1,5,5.4,4.4,9.2C29.4,18.1,27.6,24.3,23.4,26.8z"/>
<path class="st1" d="M20.5,16.3c-0.2,3.5-2.2,4.9-4.8,5.6c-2.7,0.7-5.8-1.1-6.9-3.5c-0.1-0.2-0.2-0.4-0.2-0.7
	c-0.3-2.5,1.2-6.3,4.1-7.6c4.7-2,8.2,2.3,7.9,5.7C20.5,16.1,20.5,16.4,20.5,16.3z"/>
</svg>
