<?xml version="1.0" encoding="utf-8"?>
<!-- Generator: Adobe Illustrator 21.0.2, SVG Export Plug-In . SVG Version: 6.00 Build 0)  -->
<svg version="1.1" id="Ebene_1" xmlns="http://www.w3.org/2000/svg" xmlns:xlink="http://www.w3.org/1999/xlink" x="0px" y="0px"
	 viewBox="0 0 31 32" style="enable-background:new 0 0 31 32;" xml:space="preserve">
<style type="text/css">
	.st0{fill:#8B8B8B;}
	.st1{fill:#040514;}
</style>
<path class="st0" d="M15.3,29.5c-6.9-0.7-9.5-2.1-12.8-7c-1.7-2.5-1.5-5.3-1.1-8.9c0.5-3.6,2.3-7.4,5.1-9c0.8-0.4,4.5-1.9,5.6-2
	c4.2-1,8.1-1.2,11.9,1.5c3,2.1,4.8,6.8,5.5,9.4c0.5,3,0.9,7.3-1.8,10C25.3,26,20.2,30,15.3,29.5z"/>
<path class="st1" d="M20.5,16.3c-0.2,3.5-2.2,4.9-4.8,5.6c-2.7,0.7-5.8-1.1-6.9-3.5c-0.1-0.2-0.2-0.4-0.2-0.7
	c-0.3-2.5,1.2-6.3,4.1-7.6c4.7-2,8.2,2.3,7.9,5.7C20.5,16.1,20.5,16.4,20.5,16.3z"/>
</svg>
